<?xml version="1.0" encoding="UTF-8"?>
<svg width="240px" height="240px" viewBox="0 0 240 240" version="1.1" xmlns="http://www.w3.org/2000/svg" xmlns:xlink="http://www.w3.org/1999/xlink">
    <!-- Generator: Sketch 54.1 (76490) - https://sketchapp.com -->
    <title>coding</title>
    <desc>Created with Sketch.</desc>
    <g id="About-Me" stroke="none" stroke-width="1" fill="none" fill-rule="evenodd">
        <g id="Desktop-HD" transform="translate(-85.000000, -927.000000)" fill="#F3F7F6" fill-rule="nonzero">
            <g id="coding" transform="translate(85.000000, 927.000000)">
                <path d="M28.1588448,207.942238 C12.6352759,207.942238 0,220.528917 0,235.99278 C0,238.208773 1.79814337,240 4.02269211,240 L52.2949974,240 C54.5195462,240 56.3176895,238.208773 56.3176895,235.99278 C56.3176895,220.528917 43.6824136,207.942238 28.1588448,207.942238 Z M8.45167612,231.98556 C10.0527076,224.151444 16.2717896,217.996354 24.1361527,216.397473 L24.1361527,223.971119 L32.1815369,223.971119 L32.1815369,216.397473 C40.0458999,218.000361 46.2649819,224.151444 47.8660134,231.98556 L8.45167612,231.98556 Z" id="Shape"></path>
                <path d="M236,172 L228.984,172 C228.764,171.444 228.536,170.892 228.288,170.336 L233.252,165.372 C234.816,163.808 234.816,161.28 233.252,159.716 L216.284,142.748 C215.456,141.92 214.364,141.56 213.28,141.612 C219.62,138.248 224,131.66 224,124 L224,20 C224,8.972 215.028,0 204,0 L20,0 C8.972,0 0,8.972 0,20 L0,124 C0,135.028 8.972,144 20,144 L72.2,144 L57.088,172 L56,172 L50,172 C42.28,172 36,178.28 36,186 C36,193.72 42.28,200 50,200 L136,200 C136,202.212 137.788,204 140,204 L147.016,204 C147.236,204.556 147.464,205.108 147.712,205.664 L142.748,210.628 C141.184,212.192 141.184,214.72 142.748,216.284 L159.716,233.252 C161.28,234.816 163.808,234.816 165.372,233.252 L170.336,228.288 C170.892,228.536 171.444,228.764 172,228.984 L172,236 C172,238.212 173.788,240 176,240 L200,240 C202.212,240 204,238.212 204,236 L204,228.984 C204.556,228.764 205.108,228.536 205.664,228.288 L210.628,233.252 C212.192,234.816 214.72,234.816 216.284,233.252 L233.252,216.284 C234.816,214.72 234.816,212.192 233.252,210.628 L228.288,205.664 C228.536,205.108 228.764,204.556 228.984,204 L236,204 C238.212,204 240,202.212 240,200 L240,176 C240,173.788 238.212,172 236,172 Z M8,20 C8,13.384 13.384,8 20,8 L204,8 C210.616,8 216,13.384 216,20 L216,104 L8,104 L8,20 Z M20,136 C13.384,136 8,130.616 8,124 L8,112 L216,112 L216,124 C216,130.616 210.616,136 204,136 L200,136 L176,136 L145.096,136 L78.904,136 L20,136 Z M210.576,142.8 L205.664,147.712 C205.108,147.464 204.556,147.236 204,147.016 L204,144 C206.316,144 208.504,143.528 210.576,142.8 Z M172,144 L172,147.016 C171.444,147.236 170.892,147.464 170.336,147.712 L166.624,144 L172,144 Z M158.46,144 L155.012,147.448 L152.664,144 L158.46,144 Z M136,192 L50,192 C46.692,192 44,189.308 44,186 C44,182.692 46.692,180 50,180 L56,180 L59.472,180 L136,180 L136,192 Z M66.178,171.996 L81.288,144 L142.984,144 L149.256,153.204 L142.748,159.712 C141.184,161.276 141.184,163.804 142.748,165.368 L147.712,170.332 C147.464,170.888 147.236,171.44 147.016,171.996 L140,171.996 L66.178,171.996 Z M232,196 L226.164,196 C224.416,196 222.876,197.132 222.348,198.796 C221.74,200.728 220.92,202.696 219.908,204.632 C219.1,206.184 219.392,208.076 220.628,209.312 L224.772,213.456 L213.46,224.768 L209.316,220.624 C208.076,219.388 206.188,219.1 204.636,219.904 C202.7,220.916 200.732,221.736 198.8,222.344 C197.132,222.876 196,224.416 196,226.164 L196,232 L180,232 L180,226.164 C180,224.416 178.868,222.876 177.204,222.348 C175.272,221.74 173.304,220.92 171.368,219.908 C169.816,219.104 167.924,219.392 166.688,220.628 L162.544,224.772 L151.232,213.46 L155.376,209.316 C156.612,208.08 156.904,206.188 156.096,204.636 C155.084,202.7 154.264,200.732 153.656,198.8 C153.124,197.132 151.584,196 149.836,196 L144,196 L144,180 L149.836,180 C151.584,180 153.124,178.868 153.652,177.204 C154.26,175.272 155.08,173.304 156.092,171.368 C156.9,169.816 156.608,167.924 155.372,166.688 L151.228,162.544 L162.54,151.232 L166.684,155.376 C167.92,156.616 169.812,156.904 171.364,156.096 C173.3,155.084 175.268,154.264 177.2,153.656 C178.868,153.124 180,151.584 180,149.836 L180,144 L196,144 L196,149.836 C196,151.584 197.132,153.124 198.796,153.652 C200.728,154.26 202.696,155.08 204.632,156.092 C206.184,156.9 208.072,156.612 209.312,155.372 L213.456,151.228 L224.768,162.54 L220.624,166.684 C219.388,167.92 219.096,169.812 219.904,171.364 C220.916,173.3 221.736,175.268 222.344,177.2 C222.876,178.868 224.416,180 226.164,180 L232,180 L232,196 Z" id="Shape"></path>
                <path d="M187.581227,163.754513 C174.440794,163.754513 163.754513,174.440794 163.754513,187.581227 C163.754513,200.721661 174.440794,211.407942 187.581227,211.407942 C200.721661,211.407942 211.407942,200.721661 211.407942,187.581227 C211.407942,174.440794 200.721661,163.754513 187.581227,163.754513 Z M187.581227,203.465704 C178.820939,203.465704 171.696751,196.341516 171.696751,187.581227 C171.696751,178.820939 178.820939,171.696751 187.581227,171.696751 C196.341516,171.696751 203.465704,178.820939 203.465704,187.581227 C203.465704,196.341516 196.341516,203.465704 187.581227,203.465704 Z" id="Shape"></path>
                <path d="M78.8447653,30.7695334 L73.2166906,25.1263538 L45.3549342,53.0628867 C43.7986561,54.6233416 43.7986561,57.1456114 45.3549342,58.7060664 L73.2166906,86.6425993 L78.8447653,80.9994196 L53.7970464,55.8844765 L78.8447653,30.7695334 Z" id="Path"></path>
                <path d="M166.919434,53.0628867 L139.057678,25.1263538 L133.429603,30.7695334 L158.477322,55.8844765 L133.429603,80.9994196 L139.057678,86.6425993 L166.919434,58.7060664 C168.475712,57.1456114 168.475712,54.6233416 166.919434,53.0628867 Z" id="Path"></path>
                <polygon id="Rectangle" transform="translate(105.990328, 52.011686) rotate(-63.434949) translate(-105.990328, -52.011686) " points="65.7528015 48.0118072 146.227855 48.0118072 146.227855 56.011564 65.7528015 56.011564"></polygon>
                <rect id="Rectangle" x="155.956679" y="79.7111913" width="7.79783394" height="7.79783394"></rect>
                <rect id="Rectangle" x="172.418773" y="79.7111913" width="7.79783394" height="7.79783394"></rect>
                <rect id="Rectangle" x="188.01444" y="79.7111913" width="7.79783394" height="7.79783394"></rect>
            </g>
        </g>
    </g>
</svg>