<?xml version="1.0" encoding="UTF-8"?>
<svg width="240px" height="240px" viewBox="0 0 240 240" version="1.1" xmlns="http://www.w3.org/2000/svg" xmlns:xlink="http://www.w3.org/1999/xlink">
    <!-- Generator: Sketch 54.1 (76490) - https://sketchapp.com -->
    <title>open-book</title>
    <desc>Created with Sketch.</desc>
    <g id="About-Me" stroke="none" stroke-width="1" fill="none" fill-rule="evenodd">
        <g id="Desktop-HD" transform="translate(-407.000000, -927.000000)" fill="#F3F7F6" fill-rule="nonzero">
            <g id="open-book" transform="translate(407.000000, 927.000000)">
                <path d="M136.465298,113.893684 C137.176086,115.292793 138.590132,116.101083 140.052192,116.101083 C140.662717,116.101083 141.289246,115.959419 141.871999,115.660456 C142.108772,115.539165 165.752146,103.450351 177.412846,99.7429252 C179.525913,99.067771 180.698479,96.7954624 180.027701,94.669082 C179.360689,92.5422277 177.119587,91.3577466 174.98675,92.0291105 C162.703286,95.9388457 139.220898,107.946641 138.224853,108.455968 C136.248295,109.466567 135.46125,111.900913 136.465298,113.893684 Z" id="Path"></path>
                <path d="M140.052113,68.4476534 C140.662639,68.4476534 141.28917,68.3059895 141.871924,68.0070265 C142.108697,67.8857356 165.752117,55.7969215 177.41284,52.0894956 C179.525911,51.4143414 180.698479,49.1420328 180.027701,47.0156524 C179.360688,44.8887981 177.119581,43.704317 174.98674,44.3756809 C162.703251,48.2854161 139.220818,60.2932117 138.22477,60.8025386 C136.24868,61.8131379 135.461162,64.2470096 136.465212,66.2402544 C137.176002,67.6388897 138.590051,68.4476534 140.052113,68.4476534 Z" id="Path"></path>
                <path d="M235.999695,60.0013116 C233.787668,60.0013116 231.999859,61.7933251 231.999859,64.0011158 L231.999859,219.999573 C231.999859,226.615445 226.615807,231.999454 219.999883,231.999454 L124.00007,231.999454 L124.00007,222.795639 C129.832246,220.755659 145.023936,215.999769 160,215.999769 C194.843994,215.999769 218.504104,223.715786 218.739885,223.795473 C219.943633,224.195313 221.288005,223.995627 222.339878,223.243291 C223.383782,222.491423 223.999719,221.283466 223.999719,219.999104 L223.999719,44.0016261 C223.999719,42.1257071 222.699878,40.5015044 220.867537,40.0974459 C220.867537,40.0974459 217.731606,39.3976091 212.37146,38.4132438 C210.207246,38.0134041 208.115687,39.4533898 207.715376,41.6213371 C207.315533,43.7972531 208.751311,45.881295 210.923494,46.2811348 C212.967709,46.6570686 214.679581,46.9889403 215.999578,47.2533127 L215.999578,214.683532 C206.935377,212.307461 186.80776,207.999692 159.999531,207.999692 C142.57144,207.999692 125.451786,213.723541 120.15539,215.663678 C115.447275,213.583855 101.215584,207.999692 83.9993672,207.999692 C56.4472335,207.999692 33.7513403,212.543709 23.9994844,214.851811 L23.9994844,47.0972205 C31.9874375,45.1331774 55.5795789,40.0013531 83.9993672,40.0013531 C98.5835575,40.0013531 111.091189,44.541152 115.999461,46.5933192 L115.999461,203.999887 C115.999461,205.439873 116.775241,206.772047 118.027269,207.479853 C119.279298,208.191877 120.823358,208.171721 122.059449,207.427822 C122.455542,207.192043 162.08734,183.519934 197.263208,171.796143 C198.899143,171.24818 199.999297,169.724289 199.999297,168.000243 L199.999297,4.00170921 C199.999297,2.68969093 199.355236,1.46157808 198.275238,0.713929224 C197.203209,-0.0341883761 195.82743,-0.206217925 194.591339,0.254090023 C162.587495,12.2577213 130.203964,32.4095532 129.87959,32.6097075 C128.007406,33.7815709 127.435532,36.2495152 128.607405,38.1216842 C129.775528,39.9938532 132.243492,40.5657226 134.119426,39.3938591 C134.415206,39.2058923 162.587495,21.6780969 191.999156,9.85024511 L191.999156,165.136678 C164.694991,174.624553 136.187078,190.116587 123.999133,197.052144 L123.999133,44.0016261 C123.999133,42.4857036 123.143197,41.1014985 121.787106,40.4218177 C121.098982,40.0819773 104.707295,32.0017448 83.9993672,32.0017448 C47.8555315,32.0017448 20.0676171,39.8218237 18.8994943,40.1574453 C17.1834039,40.6454093 15.9993438,42.2175812 15.9993438,44.0016261 L15.9993438,220.000042 C15.9993438,221.25206 16.5913738,222.436111 17.5874656,223.192197 C18.2915268,223.724223 19.1394939,224.000314 19.9996484,224.000314 C20.3676165,224.000314 20.7355845,223.948284 21.0955838,223.844222 C21.371677,223.768286 49.031623,216.000237 83.9993672,216.000237 C98.6234011,216.000237 111.119314,220.552224 115.999461,222.595953 L115.999461,231.999923 L19.9996484,231.999923 C13.3837239,231.999923 7.99967188,226.615914 7.99967188,220.000042 L7.99967188,64.0015845 C7.99967188,61.7937938 6.20764413,60.0017803 3.99983594,60.0017803 C1.79202775,60.0017803 0,61.7937938 0,64.0015845 L0,220.000042 C0,231.027745 8.97185748,240 20.0001172,240 L219.999883,240 C231.027674,240 240,231.028214 240,220.000042 L240,64.0015845 C239.999531,61.7933251 238.211722,60.0013116 235.999695,60.0013116 Z" id="Path"></path>
                <path d="M136.465298,89.6337563 C137.176086,91.0328653 138.590132,91.8411552 140.052192,91.8411552 C140.662717,91.8411552 141.289246,91.6994913 141.871999,91.4005283 C142.108772,91.2792374 165.752146,79.1904233 177.412846,75.4829974 C179.525913,74.8078432 180.698479,72.5355346 180.027701,70.4091542 C179.360689,68.2822999 177.119587,67.0978188 174.98675,67.7691827 C162.703286,71.6789179 139.220898,83.6867135 138.224853,84.1960404 C136.248295,85.2066397 135.46125,87.6409852 136.465298,89.6337563 Z" id="Path"></path>
                <path d="M136.465298,138.153612 C137.176086,139.552721 138.590132,140.361011 140.052192,140.361011 C140.662717,140.361011 141.289246,140.219347 141.871999,139.920384 C142.108772,139.799093 165.752146,127.710279 177.412846,124.002853 C179.525913,123.327699 180.698479,121.05539 180.027701,118.92901 C179.360689,116.802155 177.119587,115.617674 174.98675,116.289038 C162.703286,120.198774 139.220898,132.206569 138.224853,132.715896 C136.248295,133.726495 135.46125,136.160841 136.465298,138.153612 Z" id="Path"></path>
                <path d="M96.5596837,74.1540784 C71.9505773,68.2859294 43.9854077,75.7619464 42.8098982,76.0818116 C40.6858549,76.660796 39.4225441,78.8799197 39.9923183,81.0425687 C40.470555,82.8526067 42.0804005,84.0433213 43.8382939,84.0433213 C44.1810924,84.0433213 44.5276272,83.998711 44.874629,83.9056939 C45.141769,83.8288123 72.0664002,76.6323213 94.7429447,82.0387066 C96.8749276,82.5450806 99.0311958,81.1963317 99.5332509,79.0175471 C100.034839,76.8430337 98.7038092,74.664249 96.5596837,74.1540784 Z" id="Path"></path>
                <path d="M96.5596837,98.4124894 C71.9505773,92.5477122 43.9854077,100.020604 42.8098982,100.340518 C40.6858549,100.919591 39.4225441,103.13953 39.9923183,105.302036 C40.470555,107.112352 42.0804005,108.303249 43.8382939,108.303249 C44.1810924,108.303249 44.5276272,108.258632 44.874629,108.165601 C45.141769,108.088707 72.0664002,100.891112 94.7429447,106.298327 C96.8749276,106.804779 99.0311958,105.455823 99.5332509,103.276704 C100.034839,101.101857 98.7038092,98.9227383 96.5596837,98.4124894 Z" id="Path"></path>
                <path d="M136.465298,162.413536 C137.176086,163.812647 138.590132,164.620939 140.052192,164.620939 C140.662717,164.620939 141.289246,164.479274 141.871999,164.180311 C142.108772,164.05902 165.752146,151.970185 177.412846,148.262753 C179.525913,147.587597 180.698479,145.315285 180.027701,143.188901 C179.360689,141.062517 177.119587,139.87756 174.98675,140.548925 C162.703286,144.458667 139.220898,156.466483 138.224853,156.975811 C136.248295,157.986412 135.46125,160.420761 136.465298,162.413536 Z" id="Path"></path>
                <path d="M96.5596837,122.672219 C71.9505773,116.809857 43.9854077,124.275402 42.8098982,124.599454 C40.6858549,125.178289 39.4225441,127.397314 39.9923183,129.55893 C40.470555,131.3685 42.0804005,132.563177 43.8382939,132.563177 C44.1810924,132.563177 44.5276272,132.514783 44.874629,132.421315 C45.141769,132.344453 72.0664002,125.149822 94.7429447,130.55481 C96.8749276,131.061053 99.0311958,129.712653 99.5332509,127.534431 C100.034839,125.36048 98.7038092,123.182258 96.5596837,122.672219 Z" id="Path"></path>
                <path d="M96.5596837,170.326575 C71.9505773,164.460491 43.9854077,171.933877 42.8098982,172.25363 C40.6858549,172.83241 39.4225441,175.051227 39.9923183,177.21264 C40.470555,179.022041 42.0804005,180.216606 43.8382939,180.216606 C44.1810924,180.216606 44.5276272,180.168217 44.874629,180.074758 C45.141769,179.997903 72.0664002,172.803945 94.7429447,178.208428 C96.8749276,178.710354 99.0311958,177.366349 99.5332509,175.188332 C100.034839,173.014584 98.7038092,170.836566 96.5596837,170.326575 Z" id="Path"></path>
                <path d="M96.5596837,146.067237 C71.9505773,140.201504 43.9854077,147.670174 42.8098982,147.994177 C40.6858549,148.572923 39.4225441,150.791608 39.9923183,152.952892 C40.470555,154.762185 42.0804005,155.956679 43.8382939,155.956679 C44.1810924,155.956679 44.5276272,155.908292 44.874629,155.814838 C45.141769,155.737989 72.0664002,148.54446 94.7429447,153.94862 C96.8749276,154.454785 99.0311958,153.106592 99.5332509,150.928704 C100.034839,148.755086 98.7038092,146.577198 96.5596837,146.067237 Z" id="Path"></path>
            </g>
        </g>
    </g>
</svg>