<?xml version="1.0" encoding="UTF-8"?>
<svg width="295px" height="203px" viewBox="0 0 295 203" version="1.1" xmlns="http://www.w3.org/2000/svg" xmlns:xlink="http://www.w3.org/1999/xlink">
    <!-- Generator: Sketch 54.1 (76490) - https://sketchapp.com -->
    <title>runer-silhouette-running-fast</title>
    <desc>Created with Sketch.</desc>
    <g id="About-Me" stroke="none" stroke-width="1" fill="none" fill-rule="evenodd">
        <g id="Desktop-HD" transform="translate(-728.000000, -946.000000)" fill="#F3F7F6" fill-rule="nonzero">
            <g id="runer-silhouette-running-fast" transform="translate(728.000000, 946.000000)">
                <path d="M91.3009531,20 L181.699648,20 C184.075052,20 186,17.9853372 186,15.5 C186,13.0146628 184.075052,11 181.699648,11 L91.3009531,11 C88.9255489,11 87,13.0146628 87,15.5 C87,17.9853372 88.9255489,20 91.3009531,20 Z" id="Path"></path>
                <path d="M9.34439706,63 L100.655603,63 C103.055001,63 105,60.9851966 105,58.4996858 C105,56.014175 103.055001,54 100.655603,54 L9.34439706,54 C6.94499888,54 5,56.014175 5,58.4996858 C5,60.9851966 6.94499888,63 9.34439706,63 Z" id="Path"></path>
                <path d="M34,107.499372 C34,109.984709 35.9449989,112 38.3443971,112 L129.655603,112 C132.055001,112 134,109.984709 134,107.499372 C134,105.014034 132.055001,103 129.655603,103 L38.3443971,103 C35.9449989,103 34,105.014034 34,107.499372 Z" id="Path"></path>
                <path d="M85.6906731,157 L4.30932688,157 C1.92929786,157 0,159.014175 0,161.499686 C0,163.985197 1.92929786,166 4.30932688,166 L85.6906731,166 C88.0707021,166 90,163.985197 90,161.499686 C90,159.014175 88.0707021,157 85.6906731,157 Z" id="Path"></path>
                <path d="M233.502403,47 C246.479522,47 257,36.4779168 257,23.4996996 C257,10.5214824 246.478921,0 233.502403,0 C220.52228,0 210,10.5220832 210,23.4996996 C209.999399,36.4779168 220.52168,47 233.502403,47 Z" id="Path"></path>
                <path d="M272.169748,40.4737242 C258.584923,59.5188113 240.393995,61.7242613 220.81912,50.0934335 C219.486586,49.302789 213.574565,46.0427428 212.265621,45.2642062 C180.775368,26.5539019 149.322011,33.8912761 128.228302,63.4562933 C119.2647,76.0309303 139.996091,87.9499257 148.859284,75.521794 C159.757872,60.2464948 173.6161,55.8265138 188.772383,60.664822 C181.011873,74.1469444 174.227021,87.5473387 164.653103,106.585767 C155.076766,125.624194 133.933457,140.828057 113.617613,128.93691 C98.958534,120.361505 85.7390512,141.4389 100.353974,149.987667 C128.089786,166.211619 160.610742,156.249256 177.21267,135.159754 C177.788508,135.467899 178.39701,135.745775 179.064789,135.979457 C192.627234,140.708794 210.405639,153.299777 215.822875,157.762136 C221.238296,162.224494 230.543046,184.957036 236.068554,196.379003 C242.771748,210.238285 264.41952,200.143947 257.691526,186.225941 C251.428074,173.266879 240.91479,147.402635 232.714537,140.858932 C226.136551,135.610772 213.365884,125.843347 202.534437,120.302176 C209.862464,106.096003 217.492322,92.0429939 225.524421,78.232748 C251.127453,86.0841016 275.463278,76.8354988 292.795287,52.5361979 C301.766147,39.9633771 281.039595,28.0443817 272.169748,40.4737242 Z" id="Path"></path>
            </g>
        </g>
    </g>
</svg>