<?xml version="1.0" encoding="UTF-8"?>
<svg width="249px" height="248px" viewBox="0 0 249 248" version="1.1" xmlns="http://www.w3.org/2000/svg" xmlns:xlink="http://www.w3.org/1999/xlink">
    <!-- Generator: Sketch 54.1 (76490) - https://sketchapp.com -->
    <title>team</title>
    <desc>Created with Sketch.</desc>
    <g id="About-Me" stroke="none" stroke-width="1" fill="none" fill-rule="evenodd">
        <g id="Desktop-HD" transform="translate(-1105.000000, -923.000000)" fill="#F3F7F6" fill-rule="nonzero">
            <g id="team" transform="translate(1105.000000, 923.000000)">
                <path d="M65.4884036,92.8107796 L8.27507289,35.994279 C6.38174416,34.1155264 3.31296173,34.115045 1.419633,35.994279 C-0.473211001,37.8739942 -0.473211001,40.9219731 1.419633,42.8021697 L57.2107859,98.205394 L57.2010914,104.839032 C57.1972136,107.49759 59.364411,109.656013 62.0410524,109.659864 C62.043476,109.659864 62.0458996,109.659864 62.0483232,109.659864 C64.7220562,109.659864 66.8916772,107.509142 66.895555,104.853473 L66.9081578,96.2217047 C66.9100967,94.9427281 66.3991984,93.7152572 65.4884036,92.8107796 Z" id="Path"></path>
                <path d="M110.330232,56.9649741 C110.327805,56.9649741 110.325378,56.9649741 110.322952,56.9649741 L98.8712682,56.9809059 L43.0101553,1.41358762 C41.1148883,-0.471195874 38.0416923,-0.471195874 36.14594,1.41358762 C34.2506731,3.2988539 34.2506731,6.35583369 36.14594,8.24158275 L93.4325072,65.2253854 C94.3430119,66.1306029 95.5772408,66.6394558 96.8643722,66.6394558 C96.8663135,66.6394558 96.8692256,66.6394558 96.871167,66.6394558 L110.337027,66.6206273 C113.01758,66.616765 115.187551,64.4524503 115.183668,61.7860417 C115.179786,59.1215642 113.007873,56.9649741 110.330232,56.9649741 Z" id="Path"></path>
                <path d="M213.633531,1.48293878 C212.688347,0.54155102 211.377286,0 210.040816,0 C208.704347,0 207.393286,0.541044898 206.448102,1.48293878 C205.502918,2.42483265 204.959184,3.73012245 204.959184,5.06122449 C204.959184,6.39232653 205.502918,7.69812245 206.448102,8.63900408 C207.393286,9.58089796 208.704347,10.122449 210.040816,10.122449 C211.377286,10.122449 212.688347,9.58089796 213.633531,8.63900408 C214.578714,7.69812245 215.122449,6.39232653 215.122449,5.06122449 C215.122449,3.73012245 214.578714,2.42432653 213.633531,1.48293878 Z" id="Path"></path>
                <path d="M199.301789,15.7486482 C197.404855,13.870632 194.328957,13.870632 192.432023,15.7486482 L150.747568,57.0279632 L144.052679,57.0183422 C144.028876,57.0183422 144.006531,57.0183422 143.983214,57.0183422 C131.131669,57.0183422 119.051042,61.9731492 109.961789,70.9735802 L105.59617,75.2977317 C103.699236,77.17671 103.699236,80.2222326 105.59617,82.1012109 C106.54488,83.040219 107.787966,83.5102041 109.031053,83.5102041 C110.27414,83.5102041 111.517712,83.040219 112.465937,82.1012109 L116.832042,77.7770594 C124.086539,70.5930703 133.726655,66.6398078 143.9837,66.6398078 C144.002159,66.6398078 144.021104,66.6398078 144.039077,66.6398078 L152.749914,66.651834 C152.752343,66.651834 152.754286,66.651834 152.756715,66.651834 C154.044979,66.651834 155.280779,66.1448081 156.191599,65.2428408 L199.301789,22.5521274 C201.198723,20.6736301 201.198723,17.6276265 199.301789,15.7486482 Z" id="Path"></path>
                <path d="M246.733418,36.000411 C244.841045,34.1132417 241.771271,34.1132417 239.878413,36.000411 L182.664668,93.0573127 C181.754351,93.9656096 181.242965,95.1977804 181.244903,96.482641 L181.264293,109.894402 C181.26817,112.561768 183.437322,114.721088 186.111559,114.721088 C186.113983,114.721088 186.116407,114.721088 186.11883,114.721088 C188.795976,114.717221 190.963189,112.550167 190.959311,109.8799 L190.94283,98.4742234 L246.733418,42.8370493 C248.626276,40.9493965 248.626276,37.8885471 246.733418,36.000411 Z" id="Path"></path>
                <path d="M247.578048,205.930418 L191.703397,149.783164 L191.713106,143.060011 C191.722329,136.650527 190.487823,130.399585 188.044053,124.479874 C187.016835,121.99101 184.17645,120.81097 181.700155,121.842712 C179.223375,122.874942 178.048579,125.729184 179.075797,128.217561 C181.025861,132.94211 182.010845,137.931058 182.003563,143.045864 L181.990942,151.793476 C181.989,153.089617 182.500667,154.333561 183.412833,155.250177 L240.712774,212.829675 C241.660863,213.781902 242.903137,214.258503 244.145411,214.258503 C245.387685,214.258503 246.630444,213.781902 247.578048,212.829675 C249.473741,210.924245 249.474227,207.835361 247.578048,205.930418 Z" id="Path"></path>
                <path d="M212.854069,238.914457 L155.567362,181.931067 C154.656862,181.025856 153.422641,180.517007 152.135517,180.517007 C152.133576,180.517007 152.130664,180.517007 152.128723,180.517007 L138.662944,180.535835 C135.982407,180.539697 133.812449,182.703996 133.816332,185.370386 C133.820214,188.034844 135.992114,190.191418 138.669739,190.191418 C138.672166,190.191418 138.674592,190.191418 138.677019,190.191418 L150.128633,190.175487 L205.99038,245.742402 C206.93825,246.684787 208.180237,247.156463 209.422224,247.156463 C210.664211,247.156463 211.906683,246.684787 212.854069,245.742402 C214.749324,243.85715 214.749324,240.800192 212.854069,238.914457 Z" id="Path"></path>
                <path d="M42.551898,239.36049 C41.6067143,238.418596 40.2956531,237.877551 38.9591837,237.877551 C37.6227143,237.877551 36.3116531,238.418596 35.3664694,239.36049 C34.4212857,240.301878 33.877551,241.607673 33.877551,242.938776 C33.877551,244.269878 34.4212857,245.575673 35.3664694,246.516555 C36.3116531,247.457943 37.6227143,248 38.9591837,248 C40.2956531,248 41.6067143,247.458449 42.551898,246.516555 C43.5021633,245.575673 44.0408163,244.269878 44.0408163,242.938776 C44.0408163,241.607673 43.5021633,240.301878 42.551898,239.36049 Z" id="Path"></path>
                <path d="M173.024605,122.719371 C171.927332,121.623775 170.686852,120.758119 169.364608,120.115157 C170.495748,118.105598 171.10099,115.831801 171.10099,113.463807 C171.10099,109.828727 169.683437,106.411028 167.109102,103.840145 C165.944579,102.677885 164.620401,101.770202 163.206234,101.117096 C165.646071,96.0516546 164.769413,89.7790288 160.569004,85.5845576 C156.369079,81.3920186 150.089753,80.5152519 145.01704,82.9489437 C144.351806,81.5195483 143.434993,80.2017414 142.285468,79.0539741 C136.970369,73.7479655 128.323777,73.7489316 123.009162,79.0539741 L103.693183,98.3409094 C103.324522,94.4314477 101.303662,90.7108652 97.8686347,88.3095389 C94.800817,86.1647211 91.0837308,85.3608975 87.4019625,86.0478189 C83.7201942,86.7347403 80.5444876,88.8230391 78.4583135,91.9286772 L65.205399,111.661967 C59.8801396,119.591512 57.072126,128.829687 57.0856726,138.37799 L57.102122,149.775474 L1.41694861,205.376009 C-0.472316205,207.262386 -0.472316205,210.321167 1.41694861,212.208027 C2.36133912,213.150974 3.59988405,213.62293 4.83794517,213.62293 C6.07600629,213.62293 7.31455121,213.150974 8.25894172,212.208027 L65.3640875,155.190173 C66.2726763,154.28249 66.7830923,153.050669 66.7811571,151.76716 L66.7618048,138.364947 C66.7511611,130.745048 68.9916695,123.371995 73.2423944,117.043334 L86.4948251,97.3100443 C87.1208708,96.3782079 88.0739699,95.7516699 89.1785004,95.5458834 C90.2825471,95.3400968 91.3986889,95.5806642 92.3188891,96.2241095 C94.1026841,97.4713887 94.6155191,99.9045974 93.4867982,101.763923 L88.3081323,110.292954 C86.6748012,112.982672 87.2887517,116.344335 89.767293,118.286265 C92.2458343,120.228195 95.6624766,120.022408 97.890406,117.798367 L129.851155,85.8859914 C131.393046,84.3459737 133.901584,84.3464567 135.443475,85.8859914 C136.189989,86.631847 136.601708,87.6231006 136.601708,88.677636 C136.601708,89.5727592 136.302716,90.4200588 135.756498,91.112777 L116.842562,110.04176 C114.953298,111.928136 114.953298,114.986917 116.842562,116.873777 C118.731827,118.759671 121.795291,118.759671 123.685039,116.873777 L148.135658,92.416575 C149.67755,90.8770403 152.186087,90.8770403 153.727495,92.4160919 C155.269386,93.9561097 155.269386,96.4603293 153.727495,97.999864 L129.255105,122.435328 C127.36584,124.321705 127.36584,127.380485 129.255105,129.267345 C130.199979,130.210292 131.43804,130.682249 132.676101,130.682249 C133.914163,130.682249 135.152707,130.210292 136.097098,129.267345 L155.033289,110.359618 C156.583889,109.144221 158.839879,109.246148 160.267592,110.672162 C161.01459,111.418018 161.425826,112.409271 161.425826,113.463807 C161.425826,114.518342 161.01459,115.509113 160.267592,116.254968 L141.66668,134.827447 C139.777415,136.713824 139.777415,139.772605 141.66668,141.659465 C142.611554,142.602411 143.849615,143.074368 145.087676,143.074368 C146.325737,143.074368 147.564282,142.602411 148.508673,141.659465 L160.947341,129.239811 C162.497941,128.021999 164.754899,128.124409 166.18358,129.551389 C166.930577,130.296761 167.341813,131.288498 167.341813,132.343033 C167.341813,133.397569 166.930577,134.388822 166.18358,135.134195 L131.63495,169.630496 C124.409782,176.84462 114.808639,180.814465 104.593063,180.814465 C104.574678,180.814465 104.55581,180.814465 104.537909,180.814465 L95.8622887,180.802388 C95.8598697,180.802388 95.8579345,180.802388 95.8555154,180.802388 C94.5724603,180.802388 93.3416563,181.311541 92.4345189,182.217292 L47.483079,227.100018 C45.5938141,228.986395 45.5938141,232.045175 47.483079,233.932035 C48.4279533,234.874982 49.6660144,235.346939 50.9040755,235.346939 C52.1421366,235.346939 53.3806816,234.874982 54.3250721,233.932035 L97.8565396,190.466628 L104.524362,190.476289 C104.548069,190.476289 104.570324,190.476289 104.593547,190.476289 C117.393134,190.476289 129.424921,185.500698 138.477426,176.462514 L173.024605,141.966212 C178.338737,136.660204 178.338737,128.025863 173.024605,122.719371 Z" id="Path"></path>
            </g>
        </g>
    </g>
</svg>